<svg version="1.1" viewBox="0 0 24 24" xmlns="http://www.w3.org/2000/svg">
<g transform="translate(-3.9921 -4.0088)">
<path d="m7 8v16h18v-16zm.99212 2.0177h16.016v12.991h-16.016z"/>
<rect x="8.9843" y="14.018" width="2.0197" height="1.9823"/>
<rect x="11.996" y="14.018" width="2.0197" height="1.9823"/>
<rect x="15.008" y="14.018" width="1.9842" height="1.9823"/>
<rect x="17.984" y="14.018" width="2.0197" height="1.9823"/>
<rect x="20.996" y="14.026" width="2.0197" height="1.9736"/>
<rect x="8.9843" y="16.991" width="2.0197" height="2.0177"/>
<rect x="11.996" y="16.991" width="2.0197" height="2.0177"/>
<rect x="15.008" y="16.991" width="1.9842" height="2.0177"/>
<rect x="17.984" y="16.991" width="2.0197" height="2.0177"/>
<rect x="20.996" y="17.035" width="2.0197" height="1.9736"/>
<rect x="8.9843" y="20" width="2.0197" height="2.0177"/>
<rect x="11.996" y="20" width="2.0197" height="2.0177"/>
<rect x="15.008" y="20" width="1.9842" height="2.0177"/>
<rect x="17.984" y="20" width="2.0197" height="2.0177"/>
<rect x="11.996" y="11.009" width="2.0197" height="2.0177"/>
<rect x="15.008" y="11.009" width="1.9842" height="2.0177"/>
<rect x="17.984" y="11.009" width="2.0197" height="2.0177"/>
<rect x="20.996" y="11.018" width="2.0197" height="2.009"/>
</g>
</svg>
