<svg version="1.1" viewBox="0 0 24 24" xmlns="http://www.w3.org/2000/svg">
<g transform="translate(-4.0016 -4.0097)">
<rect x="5" y="5" width="1.9839" height="2.0193"/>
<rect x="9.0032" y="5" width="6.9791" height="2.0193"/>
<rect x="18.002" y="5" width="8.9984" height="2.0193"/>
<rect x="5" y="9.0032" width="1.9839" height="3.0113"/>
<rect x="9.0032" y="9.0032" width="6.9791" height="3.0113"/>
<rect x="18.002" y="9.0032" width="8.9984" height="3.0113"/>
<rect x="5" y="13.998" width="1.9839" height="3.0113"/>
<rect x="9.0032" y="13.998" width="6.9791" height="3.0113"/>
<rect x="18.002" y="13.998" width="8.9984" height="3.0113"/>
<rect x="5" y="18.994" width="1.9839" height="3.0113"/>
<rect x="9.0032" y="18.994" width="6.9791" height="3.0113"/>
<rect x="18.002" y="18.994" width="8.9984" height="3.0113"/>
<rect x="5" y="23.989" width="1.9839" height="3.0113"/>
<rect x="9.0032" y="23.989" width="6.9791" height="3.0113"/>
<rect x="18.002" y="23.989" width="8.9984" height="3.0113"/>
</g>
</svg>
