<svg version="1.1" viewBox="0 0 24 24" xmlns="http://www.w3.org/2000/svg">
 <path d="m4 4.25a1.25 1.25 0 00-1.25 1.25 1.25 1.25 0 001.25 1.25 1.25 1.25 0 001.25-1.25 1.25 1.25 0 00-1.25-1.25zm5 .75c-.277 0-.5.223-.5.5s.223.5.5.5h12c.277 0 .5-.223.5-.5s-.223-.5-.5-.5zm-5 6.25a1.25 1.25 0 00-1.25 1.25 1.25 1.25 0 001.25 1.25 1.25 1.25 0 001.25-1.25 1.25 1.25 0 00-1.25-1.25zm5 .75c-.277 0-.5.223-.5.5s.223.5.5.5h12c.277 0 .5-.223.5-.5s-.223-.5-.5-.5zm-5 6.25a1.25 1.25 0 00-1.25 1.25 1.25 1.25 0 001.25 1.25 1.25 1.25 0 001.25-1.25 1.25 1.25 0 00-1.25-1.25zm5 .75c-.277 0-.5.223-.5.5s.223.5.5.5h12c.277 0 .5-.223.5-.5s-.223-.5-.5-.5z" />
</svg>
