<svg version="1.1" viewBox="0 0 24 15" xmlns="http://www.w3.org/2000/svg">
 <g transform="translate(27.007 .7713)" stroke-linejoin="round">
  <path d="m-6.0508 8.9287c-1.2178 0-2.2-0.97344-2.2-2.2195 0-1.207 0.98214-2.1805 2.2-2.1805s2.2 0.97346 2.2 2.1805c0 1.2461-0.98214 2.2195-2.2 2.2195z" stroke-width=".21051"/>
  <path d="m-14.886 8.9287c-1.2071 0-2.1805-0.97344-2.1805-2.2195 0-1.207 0.97347-2.1805 2.1805-2.1805 1.2071 0 2.2195 0.97346 2.2195 2.1805 0 1.2461-1.0124 2.2195-2.2195 2.2195z" stroke-width=".20958"/>
  <path d="m-23.702 8.9287c-1.2071 0-2.1805-0.97344-2.1805-2.2195 0-1.207 0.97347-2.1805 2.1805-2.1805 1.246 0 2.2195 0.97346 2.2195 2.1805 0 1.2461-0.97347 2.2195-2.2195 2.2195z" stroke-width=".20958"/>
 </g>
</svg>
