<svg version="1.1" viewBox="0 0 50 50" xmlns="http://www.w3.org/2000/svg">
    <path d="m32 10.2-23 3.6v22.8l23 3.6v-19.5l-7.03 2.32-3.53 1.37 2.74 6.98v.43l-2.09 2.29h-7.4l-2.09-2.29v-.43l3.48-8.86v-.428l-.58-1.57h-.434v-.428h6.66v.428h-.434l-.58 1.57v.428l.432 1.1 3.53-1.37 7.33-3.27v-8.72zm4.81 8.31-2.11 1.02c.197-.0183.398-.0273.6-.0273 3.56 0 6.45 2.9 6.45 6.46 0 3.56-2.89 6.45-6.45 6.45-.808 0-1.58-.149-2.29-.42v1.21c.724.229 1.49.354 2.29.354 4.2 0 7.59-3.4 7.59-7.59 0-3.68-2.61-6.75-6.08-7.46zm-1.51 1.51c-.814 0-1.59.164-2.29.461v10.9c.706.296 1.48.459 2.29.459 3.28 0 5.93-2.65 5.93-5.93 0-3.28-2.65-5.94-5.93-5.94zm.52 2.2.195.129c-.0353.525-.0527.918-.0527 1.17v4.33c-3e-6.38.0426.616.131.715.0883.0993.327.172.729.207l-.0527.352c-.481-.0353-.969-.0508-1.46-.0508-.309 0-.74.0152-1.29.0508l-.0391-.363c.362 0 .607-.0625.729-.182.121-.119.182-.362.182-.729v-3.88c0-.459-.113-.688-.338-.688-.0309 0-.149.0465-.365.117l-.117-.312c.481-.194 1.07-.487 1.74-.871z"/>
</svg>
