<svg version="1.1" viewBox="0 0 50 50" xmlns="http://www.w3.org/2000/svg">
 <path d="m28 9.95-18 3.64v22.8l18 3.64v-30.1zm2.43 6.5c-.335 0-1.09.0269-1.43.0527v1.24c.335-.0516 1.09-.0781 1.43-.0781 4 0 7.5 3.35 7.5 7.35 0 3.97-3.5 7.35-7.5 7.35-.335 0-1.09-.0246-1.43-.0762v1.29c.335.0516 1.09.0762 1.43.0762 4.69 0 8.79-3.94 8.79-8.63 0-4.72-4.09-8.56-8.79-8.56zm-11.4.576h2.97v9.87c0 1.7-.512 3.04-1.36 3.97-.851.954-2.46 1.42-3.85 1.42-.67 0-1.36-.0777-1.77-.232v-2.24c.387.258 1.03.387 1.62.387 1.6 0 2.4-1.21 2.4-3.66v-9.51zm11.4 1.38c-.335 0-1.09.0519-1.43.104v3.12c.464-.206 1.23-.489 1.82-.824l.232.154c-.0516.567-.0508 1.01-.0508 1.29v4.87c0 .413.0258.67.129.799.103.103.386.181.824.232l-.0508.488c-.541-.0516-.909-.0527-1.48-.0527-.258 0-1.02-.000409-1.43.0254v2.87c.335.0516 1.09.0762 1.43.0762 3.66 0 6.6-2.89 6.6-6.55 0-3.69-2.94-6.61-6.6-6.61zm-.824 3.59c-.0258 0-.554.0508-.605.0508v6.04c.155-.0258.708-.0788.76-.156.155-.129.207-.412.207-.799v-4.36c0-.516-.129-.773-.361-.773z"/>
</svg>
