<svg version="1.1" viewBox="0 0 50 50" xmlns="http://www.w3.org/2000/svg">
<g stroke-linejoin="round" stroke-width=".2">
<path d="m30.448 16.452c-.3353 0-1.0955.0258-1.4307.0516v1.2401c.3352-.0516 1.0954-.0774 1.4307-.0774 3.9969 0 7.4952 3.3492 7.4952 7.3461 0 3.9711-3.4983 7.3453-7.4952 7.3453-.3353 0-1.0955-.0258-1.4307-.0774v1.2893c.3352.0516 1.0954.0774 1.4307.0774 4.6931 0 8.7846-3.9414 8.7846-8.6346 0-4.719-4.0915-8.5604-8.7846-8.5604z"/>
<path d="m30.448 18.409c-.3353 0-1.0955.0516-1.4307.1032v3.1225c.4641-.2063 1.2299-.4899 1.823-.8251l.2321.1547c-.0516.5673-.0516 1.0057-.0516 1.2893v4.8737c0 .4126.0258.6705.1289.7994.1032.1031.3868.1805.8252.2321l-.0516.4868c-.5415-.0516-.908-.0516-1.4753-.0516-.2579 0-1.0181 0-1.4307.0258v2.8678c.3352.0516 1.0954.0774 1.4307.0774 3.6617 0 6.6029-2.8905 6.6029-6.5522 0-3.6875-2.9412-6.6038-6.6029-6.6038zm-.8252 3.5868c-.0258 0-.5539.0515-.6055.0515v6.0341c.1547-.0258.7086-.0773.7602-.1547.1547-.1289.2063-.4126.2063-.7994v-4.3579c0-.5158-.1289-.7736-.361-.7736z"/>
</g>
<path d="m28.021 9.9535-17.992 3.6359v22.821l17.992 3.6359v-30.093zm-8.9877 7.0735h2.9723l1e-4 9.8683c0 1.7019-.5126 3.0429-1.3636 3.9712-.8509.9541-2.4598 1.4182-3.8523 1.4182-.6704 0-1.3619-.0773-1.7745-.232v-2.2435c.3868.2579 1.0267.3868 1.6198.3868 1.5988 0 2.3982-1.212 2.3982-3.6617v-9.5073z" stroke-linejoin="round" stroke-width=".2"/>
</svg>
