<svg width="24" height="24" version="1.1" viewBox="0 0 6.35 6.35" xmlns="http://www.w3.org/2000/svg">
<path d="m5.4596.51625-4.9434 4.9434c.11515.13395.2402.25898.37414.37414l1.1338-1.1338a3.113 3.113 0 001.1508.22117 3.113 3.113 0 002.7967-1.7461 3.113 3.113 0 00-1.1488-1.2738l1.0108-1.0108c-.11521-.13402-.24012-.25893-.37414-.37414zm-2.2846.9126a3.113 3.113 0 00-2.7967 1.7461 3.113 3.113 0 00.79272 1.0154l.26045-.26045a2.7467 2.7467 0 01-.63872-.75499 2.7467 2.7467 0 012.3781-1.3798 2.7467 2.7467 0 01.00413 0 2.7467 2.7467 0 01.36639.024791l.31574-.31574a3.113 3.113 0 00-.68213-.075449zm-.025321.58085a1.1653 1.1653 0 00-1.14 1.1653 1.1653 1.1653 0 00.01188.16485l.34468-.34468a.57184.57184 0 01-.06046-.25528.57184.57184 0 01.57206-.57154.57184.57184 0 01.25477.06046l.20722-.20722a1.1653 1.1653 0 00-.16485-.01188 1.1653 1.1653 0 00-.025321 0zm1.4061.15865a2.7467 2.7467 0 011.0015 1.0067 2.7467 2.7467 0 01-2.3823 1.3803 2.7467 2.7467 0 01-.8661-.14004l.25115-.25115a1.1653 1.1653 0 00.61495.17622 1.1653 1.1653 0 001.1653-1.1653 1.1653 1.1653 0 00-.1757-.61547z" color="#000000" color-rendering="auto" dominant-baseline="auto" image-rendering="auto" shape-rendering="auto" solid-color="#000000" stop-color="#000000" style="font-feature-settings:normal;font-variant-alternates:normal;font-variant-caps:normal;font-variant-east-asian:normal;font-variant-ligatures:normal;font-variant-numeric:normal;font-variant-position:normal;font-variation-settings:normal;inline-size:0;isolation:auto;mix-blend-mode:normal;shape-margin:0;shape-padding:0;text-decoration-color:#000000;text-decoration-line:none;text-decoration-style:solid;text-indent:0;text-orientation:mixed;text-transform:none;white-space:normal"/>
</svg>
