<svg version="1.1" viewBox="0 0 24 24" xmlns="http://www.w3.org/2000/svg">
 <g>
  <path d="m12.5 2.1c-.204-7.76e-5-.351.0616-.467.177l-6.42 6.41c-.254.254-.254.663 0 .917.254.254.663.254.917 0l5.29-5.29v12c0 .359.288.649.647.649.359 0 .649-.29.649-.649v-12.1l5.34 5.34c.254.254.663.254.917 0 .254-.254.254-.663 0-.917l-6.41-6.41c-.116-.116-.263-.177-.467-.177zm-9.07 18.8c-.359 0-.649.29-.649.649 0 .359.29.649.649.649h18.1c.359 0 .649-.29.649-.649 0-.359-.29-.649-.649-.649z" stroke-width="0"/>
 </g>
</svg>
