<svg version="1.1" viewBox="0 0 24 24" xmlns="http://www.w3.org/2000/svg">
 <path d="m3.99 2c-1.09 0-1.99.895-1.99 1.99v5.02c0 1.09.895 1.99 1.99 1.99h16c1.09 0 1.99-.895 1.99-1.99v-5.02c0-1.09-.895-1.99-1.99-1.99h-16zm0 .977h16c.569 0 1.01.443 1.01 1.01v5.02c0 .569-.443 1.01-1.01 1.01h-16c-.569 0-1.01-.443-1.01-1.01v-5.02c0-.569.443-1.01 1.01-1.01zm-.402 10c-.87 0-1.59.716-1.59 1.59v5.83c0 .87.716 1.59 1.59 1.59h16.8c.87 0 1.59-.716 1.59-1.59v-5.83c0-.87-.716-1.59-1.59-1.59h-16.8zm0 .977h16.8c.346 0 .609.264.609.609v5.83c0 .346-.264.609-.609.609h-16.8c-.346 0-.609-.264-.609-.609v-5.83c0-.346.264-.609.609-.609z" />
</svg>
