<svg enable-background="new 0 0 70.00 70.00" version="1.1" viewBox="0 0 62 62" xmlns="http://www.w3.org/2000/svg">
<g transform="matrix(1.2287 0 0 1.2287 -12.031 -12.003)" fill="#fff" stroke-linejoin="round" stroke-width=".2">
<path d="m43.545 21.988c-.9547 0-1.9538.083-2.8254.249v2.1168c.8716-.2075 1.8707-.332 2.8254-.332 6.3919 0 11.622 5.2297 11.622 11.663 0 6.4334-5.2298 11.663-11.622 11.663-.9547 0-1.9538-.1245-2.8254-.332v2.1168c.8716.166 1.8707.249 2.8254.249 7.5541 0 13.697-6.1014 13.697-13.697 0-7.5541-6.1429-13.697-13.697-13.697z"/>
<path d="m43.545 24.976c-.9547 0-1.9538.1245-2.8254.3736v20.67c.8716.2491 1.8707.3736 2.8254.3736 5.8938 0 10.667-4.7732 10.667-10.709 0-5.8939-4.7732-10.709-10.667-10.709zm1.2906 3.9846.3735.2075c-.083.9547-.1245 1.6603-.1245 2.1168v7.8032c0 .7056.083 1.1207.249 1.2867.166.2075.5811.332 1.3282.3735l-.1245.6641c-.8716-.083-1.7433-.1245-2.6149-.1245-.5396 0-1.3282.0415-2.3243.1245l-.083-.6641c.6641 0 1.1206-.1245 1.3282-.332.2075-.2075.332-.6641.332-1.3282v-6.973c0-.8302-.2075-1.2452-.6226-1.2452-.0415 0-.249.083-.6641.2075l-.2075-.5811c.8716-.332 1.9508-.8716 3.1545-1.5357z"/>
<path d="m39.092 10.781-26.045 5.8523v36.733l26.045 5.8524zm-13.022 14.452 3.2556-1e-4v12.331c0 2.2697-.79396 4.05-1.9066 5.3406-1.1126 1.2907-2.6258 1.9138-4.5396 1.9138-.8456 0-1.1145-.1335-1.693-.3115v-3.0264c.4895.356.71393.534 1.515.534 2.1363 0 3.3686-1.6467 3.3686-4.94z"/>
</g>
</svg>
