<svg enable-background="new 0 0 32.00 32.00" version="1.1" viewBox="0 0 15 24" xmlns="http://www.w3.org/2000/svg">
<g transform="translate(-4.5,-2e-4)">
<path d="m14 3.1844c0 1.2092-.88495 2.1844-2.0177 2.1844-1.0973 0-1.9823-.97518-1.9823-2.1844s.88496-2.1844 1.9823-2.1844c1.1328 0 2.0177.97518 2.0177 2.1844z"/>
<path d="m14 12c0 1.2092-.88495 2.1844-2.0177 2.1844-1.0973 0-1.9823-.9752-1.9823-2.1844s.88496-2.2234 1.9823-2.2234c1.1328 0 2.0177 1.0142 2.0177 2.2234z"/>
<path d="m14 20.816c0 1.2092-.88495 2.1844-2.0177 2.1844-1.0973 0-1.9823-.9752-1.9823-2.1844 0-1.2482.88496-2.2234 1.9823-2.2234 1.1328 0 2.0177.9752 2.0177 2.2234z"/>
</g>
</svg>
