<svg version="1.1" viewBox="0 0 24 24" xmlns="http://www.w3.org/2000/svg">
<g transform="translate(-4 -4)" stroke-linejoin="round" stroke-width="0">
<path d="m13.006 7.8004c-1.3248 0-2.6496.53709-3.6522 1.5397-2.041 2.0409-2.041 5.3351 0 7.376 2.0051 2.041 5.2993 2.041 7.3402 0 2.041-2.0409 2.041-5.3351 0-7.376-1.0025-1.0026-2.3632-1.5397-3.688-1.5397zm0 1.6646c.931 0 1.8086.35806 2.4889 1.0384 1.4323 1.4322 1.4323 3.6172 0 5.0136-1.3964 1.3964-3.5813 1.3964-5.0136 0-1.3964-1.3964-1.3964-3.5814 0-5.0136.7161-.68032 1.5938-1.0384 2.5247-1.0384z" fill-rule="evenodd"/>
<path d="m15.834 17.003 1.1816-1.1458 7.1612 6.9105-1.4322 1.4323z"/>
</g>
</svg>
