<svg width="24" height="24" version="1.1" viewBox="0 0 24 24" xmlns="http://www.w3.org/2000/svg">
<path d="m12 4c-4.409 0-8 3.591-8 8s3.591 8 8 8 8-3.591 8-8-3.591-8-8-8zm0 1.461c3.62 0 6.539 2.919 6.539 6.539 0 3.62-2.919 6.539-6.539 6.539-3.62 0-6.539-2.919-6.539-6.539 0-3.62 2.919-6.539 6.539-6.539z"/>
<path d="m8.076 12.68a0.3163 0.3163 0 0 0 0 0.4518l2.654 2.643c0.113 0.1242 0.3276 0.1242 0.4518 0l5.184-5.184a0.3163 0.3163 0 0 0 0-0.4518l-0.6777-0.6777a0.3163 0.3163 0 0 0-0.4518 0l-4.292 4.292-1.739-1.751a0.3163 0.3163 0 0 0-0.4518 0z"/>
</svg>
