<svg width="24" height="24" version="1.1" viewBox="0 0 6.35 6.35" xmlns="http://www.w3.org/2000/svg">
<path d="m3.175 1.4287a3.113 3.113 0 00-2.7967 1.7465 3.113 3.113 0 002.7967 1.7461 3.113 3.113 0 002.7967-1.7465 3.113 3.113 0 00-2.7967-1.7461zm-.0042.36646a2.7467 2.7467 0 01.0042 0 2.7467 2.7467 0 012.3822 1.3797 2.7467 2.7467 0 01-2.3822 1.3804 2.7467 2.7467 0 01-2.3826-1.38 2.7467 2.7467 0 012.3784-1.3801zm-.02135.21469a1.1653 1.1653 0 00-1.1398 1.1654 1.1653 1.1653 0 001.1654 1.1654 1.1653 1.1653 0 001.1654-1.1654 1.1653 1.1653 0 00-1.1654-1.1654 1.1653 1.1653 0 00-.02556 0zm-.27189.15864a.57184.57184 0 01.57162.57162.57184.57184 0 01-.57162.57162.57184.57184 0 01-.57162-.57162.57184.57184 0 01.57162-.57162z"/>
</svg>
