<svg version="1.1" viewBox="0 0 24 24" xmlns="http://www.w3.org/2000/svg">
 <path d="m12 21c-.554 0-1-.446-1-1v-13.6l-2.97 2.97c-.392.392-1.02.392-1.41 0-.392-.392-.392-1.02 0-1.41l4.67-4.67h.002v-.002c.0226-.0226.0456-.0441.0703-.0644.0011-.000887.0028-.0011.0039-.002.000372-.000305.0016.000304.002 0 .0233-.019.0454-.0379.0703-.0547.0031-.0021.0067-.0038.0098-.0059.000427-.000284.0015.000283.002 0 .0518-.034.106-.0639.164-.0879.0027-.0011.0051-.0028.0078-.0039.000532-.000218.0014.000216.002 0 .0134-.0054.0274-.0088.041-.0137.0019-.000693.0039-.0013.0059-.002.013-.0045.0258-.0097.0391-.0137.0014-.000416.0025-.0015.0039-.002.000589-.000176.0014.000175.002 0 .0109-.0032.0222-.005.0332-.0078.0161-.0041.0324-.0103.0488-.0137.0039-.000796.0079-.0012.0117-.002.0085-.0016.0168-.0025.0254-.0039.0205-.0034.0396-.0077.0606-.0098.0019-.000198.0039.000188.0059 0 .000649-6.3e-5.0013 6.3e-5.002 0 .0229-.0021.047-.0014.0703-.002.0684-.0017.138.0014.205.0137.0032.000587.0065.0013.0098.002h.002c.017.0033.034.0075.0508.0117.0138.0035.0274.0077.041.0117.0312.0091.062.0193.0918.0312h.002c.0046.0019.0091.0039.0137.0059.0481.0203.0928.045.137.0723.0088.0054.0188.0099.0273.0156.0019.0013.0039.0026.0059.0039.0532.0359.101.0779.146.123l4.68 4.67c.392.392.392 1.02 0 1.41-.392.392-1.02.392-1.41 0l-2.97-2.97v13.6c0 .554-.446 1-1 1z"/>
</svg>
