<svg version="1.1" viewBox="0 0 24 24" xmlns="http://www.w3.org/2000/svg">
<path d="m17 3.326c-.554 0-1 .446-1 1v13.59l-2.969-2.967c-.3917-.3917-1.022-.3917-1.414 0-.3917.3917-.3917 1.022 0 1.414l4.674 4.674h.001953v.001953c.02259.02259.04564.04411.07031.06445.001077.000887.002827.001072.003907.001953.000372.000305.00158-.000304.001953 0 .02327.01896.04536.03786.07031.05469.003068.00208.00668.003818.009766.005859.000427.000284.001525-.000283.001953 0 .0518.03398.1061.06388.1641.08789.002669.001105.005133.002823.007813.003906.000532.000218.001421-.000216.001953 0 .01342.00543.02742.00885.04102.01367.001941.000693.003914.001273.005859.001953.01303.004499.02579.009702.03906.01367.001377.000416.002527.001544.003906.001953.000589.000176.001364-.000175.001953 0 .01091.003218.02221.004976.0332.007813.01608.004121.03244.01034.04883.01367.003851.000796.00786.001203.01172.001953.008539.001642.01682.002488.02539.003906.02049.003366.03965.007656.06055.009766.001948.000198.003911-.000188.00586 0 .000649 6.3e-5.001303-6.3e-5.001953 0 .02293.002139.04695.001375.07031.001953.06845.001742.1375-.001362.2051-.01367.003242-.000587.006534-.001335.009765-.001953h.001953c.01698-.003301.03396-.007529.05078-.01172.01376-.003456.02738-.007667.04102-.01172.0312-.009126.06196-.01926.0918-.03125h.001953c.004569-.001859.009125-.00393.01367-.005859.04811-.02028.09284-.04503.1367-.07227.008777-.005448.01875-.009915.02734-.01562.001939-.001295.003927-.002596.005859-.003906.05318-.03587.1013-.07786.1465-.123l4.676-4.674c.3917-.3917.3917-1.022 0-1.414-.3917-.3917-1.022-.3917-1.414 0l-2.969 2.967v-13.59c0-.554-.446-1-1-1z"/>
<path d="m6.992 3.326c-.00589 3.43e-5-.01169.001815-.01758.001953-.02346.0005969-.04693.001658-.07031.003906-.0006353 5.93e-5-.001318-6.04e-5-.001953 0-.02284.002175-.04405.006093-.06641.009766-.01124.001858-.02202.003614-.0332.005859-.001245.0002525-.002662-.0002572-.003906 0-.00846.001722-.01701.003926-.02539.005859-.02156.005006-.0432.009167-.06445.01562-.002522.0007594-.005299.001175-.007812.001953-.02575.008047-.05101.01911-.07617.0293-.0005639.0002283-.00139-.0002293-.001953 0-.03042.01231-.05907.02589-.08789.04102-.003896.002045-.007854.003765-.01172.005859-.04931.02672-.0968.05746-.1406.0918-.00473.003712-.008992.00791-.01367.01172-.0004069.0003313-.001547-.0003319-.001953 0-.001413.001152-.0025.002746-.003906.003906-.01604.01324-.03148.02858-.04688.04297-.007769.007288-.01591.01591-.02344.02344h-.001953l-4.674 4.674c-.3917.3917-.3917 1.022 0 1.414.3917.3917 1.022.3917 1.414 0l2.969-2.967v13.58c0 .554.446 1 1 1s1-.446 1-1v-13.58l2.969 2.967c.3917.3917 1.022.3917 1.414 0 .3917-.3917.3917-1.022 0-1.414l-4.676-4.674v-.001953c-.02259-.02259-.04564-.04411-.07031-.06445-.001753-.001451-.004099-.002469-.005859-.003906-.04783-.03888-.09968-.07392-.1543-.1035-.001747-.0009498-.004108-.001014-.005859-.001953-.009042-.004828-.01814-.009117-.02734-.01367-.02212-.01094-.04339-.02193-.06641-.03125-.02571-.01046-.0518-.02107-.07812-.0293-.004435-.001374-.009211-.002593-.01367-.003906-.0006116-.0001817-.001341.0001805-.001953 0-.002527-.0007389-.005277-.001234-.007812-.001953-.00198-.0005666-.003877-.001399-.005859-.001953-.0226-.006364-.04545-.01089-.06836-.01562-.003882-.000795-.007829-.001205-.01172-.001953-.001989-.0003805-.003866-.001584-.005859-.001953-.001261-.0002347-.002645.0002298-.003906 0-.02629-.004836-.05159-.009011-.07812-.01172-.001938-.0001956-.003918.0001847-.005859 0-.0312-.002999-.06634-.0058-.09766-.005859-.001945 0-.003914-1.14e-5-.005859 0z"/>
</svg>
