<svg version="1.1" viewBox="0 0 24 24" xmlns="http://www.w3.org/2000/svg">
 <path d="m6.99 3.33c-.00589 3.43e-5-.0117.00182-.0176.00195-.0235.000597-.0469.00166-.0703.00391h-.00195c-.0228.00218-.044.00609-.0664.00977-.0112.00186-.022.00361-.0332.00586-.00124.000252-.00266-.000257-.00391 0-.00846.00172-.017.00393-.0254.00586-.0216.00501-.0432.00917-.0645.0156-.00252.000759-.0053.00118-.00781.00195-.0258.00805-.051.0191-.0762.0293h-.00195c-.0304.0123-.0591.0259-.0879.041-.0039.00204-.00785.00377-.0117.00586-.0493.0267-.0968.0575-.141.0918-.00473.00371-.00899.00791-.0137.0117h-.00195c-.00141.00115-.0025.00275-.00391.00391-.016.0132-.0315.0286-.0469.043-.00777.00729-.0159.0159-.0234.0234h-.00195l-4.67 4.67c-.392.392-.392 1.02 0 1.41.392.392 1.02.392 1.41 0l2.97-2.97v13.6c0 .554.446 1 1 1s1-.446 1-1v-13.6l2.97 2.97c.392.392 1.02.392 1.41 0 .392-.392.392-1.02 0-1.41l-4.68-4.67v-.00195c-.0226-.0226-.0456-.0441-.0703-.0645-.00175-.00145-.0041-.00247-.00586-.00391-.0478-.0389-.0997-.0739-.154-.104-.00175-.00095-.00411-.00101-.00586-.00195-.00904-.00483-.0181-.00912-.0273-.0137-.0221-.0109-.0434-.0219-.0664-.0312-.0257-.0105-.0518-.0211-.0781-.0293-.00444-.00137-.00921-.00259-.0137-.00391h-.00195c-.00253-.000739-.00528-.00123-.00781-.00195-.00198-.000567-.00388-.0014-.00586-.00195-.0226-.00636-.0454-.0109-.0684-.0156-.00388-.000795-.00783-.00121-.0117-.00195-.00199-.00038-.00387-.00158-.00586-.00195-.00126-.000235-.00265.00023-.00391 0-.0263-.00484-.0516-.00901-.0781-.0117-.00194-.000196-.00392.000185-.00586 0-.0312-.003-.0663-.0058-.0977-.00586-.00194 0-.00391-1.14e-5-.00586 0zm10 0c-.554 0-1 .446-1 1v13.6l-2.97-2.97c-.392-.392-1.02-.392-1.41 0-.392.392-.392 1.02 0 1.41l4.67 4.67h.00195v.00195c.0226.0226.0456.0441.0703.0645.00108.000887.00283.00107.00391.00195h.00195c.0233.019.0454.0379.0703.0547.00307.00208.00668.00382.00977.00586h.00195c.0518.034.106.0639.164.0879.00267.0011.00513.00282.00781.00391h.00195c.0134.00543.0274.00885.041.0137.00194.000693.00391.00127.00586.00195.013.0045.0258.0097.0391.0137.00138.000416.00253.00154.00391.00195h.00195c.0109.00322.0222.00498.0332.00781.0161.00412.0324.0103.0488.0137.00385.000796.00786.0012.0117.00195.00854.00164.0168.00249.0254.00391.0205.00337.0396.00766.0605.00977.00195.000198.00391-.000188.00586 0h.00195c.0229.00214.047.00138.0703.00195.0684.00174.137-.00136.205-.0137.00324-.000587.00653-.00134.00976-.00195h.00195c.017-.0033.034-.00753.0508-.0117.0138-.00346.0274-.00767.041-.0117.0312-.00912.062-.0193.0918-.0312h.00195c.00457-.00186.00913-.00393.0137-.00586.0481-.0203.0929-.045.137-.0723.00878-.00545.0188-.00992.0273-.0156.00194-.00129.00393-.0026.00586-.00391.0532-.0359.101-.0779.146-.123l4.68-4.67c.392-.392.392-1.02 0-1.41-.392-.392-1.02-.392-1.41 0l-2.97 2.97v-13.6c0-.554-.446-1-1-1z"/>
</svg>
