<svg width="60" height="54" version="1.1" viewBox="0 0 16 14" xmlns="http://www.w3.org/2000/svg">
 <path d="m1.6.333v13.3h12.8v-13.3h-12.8zm1.33 1.07h10.1v11.2h-10.1v-11.2zm.533.533v10.1h9.07v-10.1h-9.07zm3.21 2.93h.791v.7c.988.16 1.68 1 1.68 2.02 0 .261-.0187.473-.109.703l.597.328-.386.664-.565-.392c-.373.461-.958.752-1.6.752-.635 0-1.19-.262-1.56-.723l-.561.356-.375-.635.561-.371c-.0806-.231-.117-.421-.117-.682 0-1.02.66-1.86 1.65-2.02v-.7zm0 1.37c-.615.15-.993.702-.993 1.35 0 .14.0201.271.0604.391l.584-.331v-.0599c0-.301.0959-.561.348-.682v-.671zm.791 0v.671c.262.12.383.381.383.682v.0599l.584.331c.0403-.12.0609-.251.0609-.391 0-.652-.414-1.2-1.03-1.35zm-.806 1.98-.585.331c.252.271.615.441 1.01.441.403 0 .766-.17 1.02-.441l-.585-.331c-.121.0802-.272.131-.433.131-.151 0-.302-.0505-.423-.131z" />
</svg>
