<svg width="60" height="54" version="1.1" viewBox="0 0 16 14" xmlns="http://www.w3.org/2000/svg">
 <path d="m8.71.338-2.1 2.16.26.264 1.69-1.76 1.31 1.33 1.32 1.33-1.61 1.7.013.321v1.63l2.18-2.23-.35-.218.367-.302-.307-.232.338-.303-.279-.232.289-.303-3.14-3.16zm-2.47 2.52-1.72 1.73 3.11 3.14-.0469 1.61 1.57-1.69.199-1.66-3.11-3.13zm-2.02 2.04-2.45 2.48.239.242-.298.292.229.232-.289.302.229.232-.289.302 3.14 3.17 2.45-2.48.0354-1.64-.176-.236-2.01 2.12-1.31-1.33-1.32-1.33 2.08-2.11-.249-.252zm8.94 3.97c-.677 0-1.25.565-1.25 1.25v.111c0 .695.576 1.25 1.25 1.25.677 0 1.22-.544 1.23-1.25.01-.0302.0099-.0706.0099-.111 0-.685-.557-1.25-1.24-1.25zm-.0198.262c.528 0 .966.443.966.978 0 .534-.438.978-.966.978-.528 0-.923-.443-.923-.978 0-.534.395-.978.923-.978zm-4.68 1.57c-.776 0-1.45.624-1.45 1.41v.121c0 .796.677 1.43 1.45 1.43.776 0 1.4-.625 1.41-1.43 0-.0403.0099-.081.0099-.121 0-.786-.637-1.41-1.42-1.41zm-.0198.295c.597 0 1.09.49 1.09 1.09 0 .615-.498 1.12-1.09 1.12-.607 0-1.03-.504-1.03-1.12 0-.605.419-1.09 1.03-1.09z" />
</svg>
