<svg width="60" height="54" version="1.1" viewBox="0 0 16 14" xmlns="http://www.w3.org/2000/svg">
<g transform="matrix(.26667 0 0 .26667 -5.3333 -6.3333)" fill="#fff" stroke-linejoin="round" stroke-width=".2">
<path d="m38.529 28.665c-1.474 0-2.8346.2645-4.0441.7559-1.2094.4913-2.2299 1.1716-3.0992 2.1165s-1.5118 2.0787-2.0031 3.4394c-.4914 1.3228-.7181 2.8724-.7181 4.5732 0 1.5496.1889 2.948.6425 4.1953.4157 1.285 1.0582 2.3811 1.8897 3.2882.7937.9071 1.7764 1.5874 2.9481 2.1165 1.1716.4913 2.4945.7559 3.9307.7559 1.474 0 2.7968-.3024 4.0063-.8315 1.2094-.5291 2.2299-1.285 3.0614-2.2299s1.5118-2.0787 1.9654-3.3638c.4913-1.3228.6803-2.759.6803-4.3087 0-1.6252-.189-3.137-.6048-4.422-.4535-1.285-1.0582-2.3811-1.8519-3.2504-.7937-.9071-1.7764-1.6252-2.9481-2.0787-1.1338-.4914-2.4189-.7559-3.8551-.7559zm-.1512 2.759c1.9276 0 3.4394.6803 4.5355 2.041 1.1338 1.3228 1.663 3.2126 1.663 5.7448 0 1.2095-.1134 2.3056-.378 3.2882-.3023.9449-.7181 1.8142-1.285 2.4945-.5292.6803-1.1717 1.2473-1.9654 1.6252-.7559.3402-1.663.5292-2.6834.5292-2.0032 0-3.5906-.6804-4.6867-2.041-1.1338-1.3984-1.7007-3.2882-1.7007-5.7071 0-1.2472.1511-2.3433.4535-3.326.3024-.9826.7559-1.8519 1.3228-2.5322.5292-.6804 1.2095-1.1717 2.041-1.5497.7937-.3779 1.7008-.5669 2.6834-.5669z"/>
<path d="m38.814 71h-3.4238l25.667-42h3.386z"/>
<path d="m62 50.094c-1.4362 0-2.7591.2646-4.0063.7559-1.2094.4913-2.2299 1.2094-3.0992 2.1543s-1.5118 2.0788-2.0032 3.4016c-.4535 1.3606-.7181 2.8724-.7181 4.5732 0 1.5496.2268 2.9481.6426 4.2331.4535 1.2851 1.096 2.3433 1.8897 3.2504.8315.9071 1.8142 1.5874 2.9858 2.1165 1.1717.4914 2.4567.7559 3.893.7559 1.474 0 2.7968-.2645 4.0063-.7937 1.2094-.5291 2.2299-1.285 3.0614-2.2299s1.5118-2.0787 1.9653-3.3638c.4536-1.3228.7181-2.759.7181-4.3086 0-1.663-.2267-3.137-.6425-4.4599-.4157-1.285-1.0582-2.3811-1.8519-3.2882-.8315-.907-1.8142-1.5874-2.9481-2.0787-1.1338-.4535-2.4567-.7181-3.8929-.7181zm-.0756 2.8346c1.9276 0 3.4394.6426 4.5733 1.9654 1.096 1.3228 1.6251 3.2126 1.6251 5.7449 0 1.2472-.1133 2.3433-.4157 3.326-.3024.9826-.7181 1.8141-1.285 2.4945-.5292.7181-1.2095 1.2094-1.9654 1.5874-.7937.3401-1.7008.5669-2.6835.5669-1.0204 0-1.8897-.189-2.6834-.5669-.7559-.3402-1.4363-.8693-2.0032-1.5119-.5291-.6803-.9449-1.474-1.2472-2.4566-.3024-.9449-.4536-2.0032-.4536-3.2127 0-1.2472.1512-2.3433.4536-3.3259.3023-1.0205.7559-1.852 1.3228-2.5323s1.2473-1.1717 2.041-1.5496c.7937-.378 1.7007-.5292 2.7212-.5292z"/>
</g>
</svg>
