<svg width="60" height="54" version="1.1" viewBox="0 0 16 14" xmlns="http://www.w3.org/2000/svg">
 <path d="m5.54 2c-.24.0039-.468.0413-.678.109-.281.09-.522.226-.733.424-.212.198-.376.442-.509.74-.133.289-.211.634-.24 1.02-.0263.349-.00748.667.0734.955.0717.296.198.554.369.772.163.218.373.388.628.527.255.13.549.213.872.237.332.025.634-.0208.916-.119.281-.0985.524-.251.727-.45.203-.199.376-.442.499-.723.133-.289.2-.609.226-.958.0276-.366.0108-.709-.0609-1.01-.0802-.297-.198-.554-.361-.763-.163-.218-.372-.396-.628-.518-.247-.13-.531-.211-.855-.235-.0829-.00626-.165-.00911-.245-.00781zm5.31.466-6.49 9.02.77.0578 6.48-9.02-.762-.0573zm-5.27.155c.0404 4.58e-5.0815.00156.123.00469.434.0327.763.212.986.536.233.317.32.751.277 1.32-.0205.272-.0649.517-.141.734-.0841.208-.193.396-.332.539-.131.144-.285.261-.47.333-.176.0637-.383.0908-.612.0734-.451-.034-.797-.214-1.02-.539-.231-.334-.327-.769-.286-1.31.0212-.281.0741-.525.159-.741.0847-.216.201-.404.341-.547.131-.144.292-.243.485-.314.15-.0581.315-.0867.491-.0865zm4.94 4.6c-.256-.00136-.5.0368-.735.109-.281.09-.522.234-.734.432-.212.198-.376.442-.509.731-.125.298-.21.634-.239 1.02-.0263.349.00118.667.0729.964.0802.297.207.546.37.764.172.218.381.388.636.527.255.13.54.212.863.236.332.0251.634-.0119.915-.11.281-.0985.524-.251.727-.45.203-.199.376-.442.499-.723.125-.29.209-.609.235-.957.0282-.374.0024-.71-.0688-1.01-.0717-.296-.198-.554-.361-.771-.172-.218-.381-.388-.628-.518-.247-.121-.541-.203-.864-.228-.0606-.00458-.121-.00698-.18-.00729zm-.0536.638c.0546-.000425.111.00139.168.00573.434.0327.763.203.996.52.224.316.311.75.268 1.32-.0212.281-.0658.526-.151.742-.0847.216-.192.396-.331.539-.131.153-.293.252-.469.324-.184.063-.392.099-.614.0823-.23-.0173-.422-.0749-.594-.173-.164-.0894-.308-.22-.425-.374-.108-.162-.188-.348-.239-.574-.052-.218-.0679-.459-.0474-.731.0212-.281.0736-.525.158-.741.0854-.225.201-.404.341-.547.139-.143.301-.243.486-.314.139-.0537.289-.0774.453-.0786z"/>
</svg>
