<svg width="60" height="54" version="1.1" viewBox="0 0 16 14" xmlns="http://www.w3.org/2000/svg">
<path transform="matrix(.26667 0 0 .26667 0 -.2)" d="m42.609 20.994c-3.3638 0-6.2344 2.5285-6.2344 5.8574 0 3.3288 2.8706 6.1465 6.2344 6.1465h.11523 15.275v-12.004h-15.275-.11523zm-.13281 3.502c1.3964 0 2.5234 1.1251 2.5234 2.4766 0 1.3964-1.127 2.5234-2.5234 2.5234-1.3513 0-2.4766-1.127-2.4766-2.5234 0-1.3515 1.1253-2.4766 2.4766-2.4766z" fill="#fff" stroke-width="3.75"/>
<path d="m.53333 1.9333v10.133h14.133l-2.7e-5-2.9333h-3.4248c-1.1893 0-2.1751-1.0089-2.1751-2.1728 0-1.1639.98584-2.0939 2.1751-2.0939h3.4249l2.7e-5-2.9333z" fill="#fff" stroke-linejoin="round" stroke-width=".053333"/>
</svg>
