<svg width="60" height="54" version="1.1" viewBox="0 0 16 14" xmlns="http://www.w3.org/2000/svg">
 <g transform="matrix(.26667 0 0 .26667 -5.3333 -6.3333)">
  <path d="m33 31v38h34v-38zm12.031 11h2.9634v2.6246c3.704.6014 6.3142 3.759 6.3142 7.5932 0 .9774-.0712 1.7729-.4114 2.6375l2.2387 1.2296-1.4494 2.4893-2.1165-1.4696c-1.3984 1.7291-3.5906 2.8192-6.0095 2.8192-2.3811 0-4.4665-.9834-5.865-2.7125l-2.1054 1.3362-1.4072-2.3827 2.1054-1.3895c-.3024-.8646-.438-1.5801-.438-2.5575 0-3.8342 2.4768-6.9917 6.1808-7.5932zm1e-4 5.1432c-2.3056.5638-3.7241 2.6313-3.7241 5.0746 0 .5263.0756 1.015.2268 1.4661l2.1921-1.2405v-.2256c0-1.1277.3603-2.105 1.3052-2.5561zm2.9633-1e-4v2.5186c.9827.4511 1.4386 1.4284 1.4386 2.5561v.2256l2.1921 1.2405c.1512-.4511.2268-.9398.2268-1.4661 0-2.4433-1.552-4.5108-3.8575-5.0747zm-3.0213 7.4429-2.1921 1.2405c.9449 1.0149 2.3055 1.654 3.7795 1.654 1.5118 0 2.8725-.6391 3.8174-1.654l-2.1922-1.2405c-.4535.3007-1.0204.4887-1.6252.4887-.5669 0-1.1338-.188-1.5874-.4887z"/>
  <path d="m26 25v50h48v-50zm5 4h38v42h-38z"/>
 </g>
</svg>
