<svg width="60" height="54" version="1.1" viewBox="0 0 16 14" xmlns="http://www.w3.org/2000/svg">
<g transform="matrix(.26667 0 0 .26667 -5.3333 -6.3333)" fill="#fff" stroke-linejoin="round" stroke-width=".2">
<path d="m26.651 51.398.8959.9071-1.1198 1.0961.8585.8693-1.0825 1.1338.8586.8693-1.0826 1.1339 11.759 11.868 9.183-9.2798.1332-6.1407-.6612-.8848-7.5351 7.9525-4.9275-4.9889-4.9648-4.989 7.8018-7.8992-.9332-.9449z"/>
<path d="m44.798 33.119.9759.9871 6.3353-6.5943 4.9274 4.989 4.9648 4.989-6.0313 6.3921.0479 1.2047 1e-4 6.103 8.1911-8.3484-1.3119-.816 1.3759-1.1338-1.1519-.8694 1.2692-1.1338-1.0452-.8693 1.0825-1.1339-11.759-11.868z"/>
<path d="m36.954 40.967 11.647 11.792-.176 6.0229 5.8873-6.3253.7466-6.2362-11.647-11.754z"/>
<path d="m51.736 63.875c-2.9117 0-5.4501 2.3389-5.4501 5.2869v.4536c0 2.9858 2.5384 5.3669 5.4501 5.3669s5.2634-2.3433 5.3007-5.3669c0-.1512.0374-.3024.0374-.4536 0-2.948-2.3891-5.2869-5.3381-5.2869zm-.0747 1.1072c2.2398 0 4.1062 1.8364 4.1062 4.1041 0 2.3055-1.8664 4.1953-4.1062 4.1953-2.277 0-3.8502-1.8898-3.8502-4.1953 0-2.2677 1.5732-4.1041 3.8502-4.1041z"/>
<path d="m69.355 56.994c-2.5383 0-4.6981 2.1166-4.6981 4.6867v.4157c0 2.6079 2.1598 4.6866 4.6981 4.6866 2.5384 0 4.5915-2.0409 4.6288-4.6866.0374-.1134.0374-.2646.0374-.4158 0-2.57-2.0905-4.6866-4.6662-4.6866zm-.0746.9827c1.9784 0 3.6209 1.663 3.6209 3.6662 0 2.0031-1.6425 3.6661-3.6209 3.6661-1.9785 0-3.461-1.663-3.461-3.6661 0-2.0032 1.4825-3.6662 3.461-3.6662z"/>
</g>
</svg>
