<?xml version="1.0" encoding="UTF-8" standalone="no"?>
<svg
   version="1.1"
   viewBox="0 0 24 24"
   id="svg1"
   sodipodi:docname="personss.svg"
   inkscape:version="1.3 (0e150ed6c4, 2023-07-21)"
   xmlns:inkscape="http://www.inkscape.org/namespaces/inkscape"
   xmlns:sodipodi="http://sodipodi.sourceforge.net/DTD/sodipodi-0.dtd"
   xmlns="http://www.w3.org/2000/svg"
   xmlns:svg="http://www.w3.org/2000/svg">
  <defs
     id="defs1" />
  <sodipodi:namedview
     id="namedview1"
     pagecolor="#ffffff"
     bordercolor="#000000"
     borderopacity="0.25"
     inkscape:showpageshadow="2"
     inkscape:pageopacity="0.0"
     inkscape:pagecheckerboard="0"
     inkscape:deskcolor="#d1d1d1"
     inkscape:zoom="16"
     inkscape:cx="5.84375"
     inkscape:cy="17.65625"
     inkscape:window-width="1920"
     inkscape:window-height="1017"
     inkscape:window-x="-8"
     inkscape:window-y="-8"
     inkscape:window-maximized="1"
     inkscape:current-layer="svg1"
     showgrid="true">
    <inkscape:grid
       id="grid2"
       units="px"
       originx="0"
       originy="0"
       spacingx="1"
       spacingy="1"
       empcolor="#0099e5"
       empopacity="0.30196078"
       color="#0099e5"
       opacity="0.14901961"
       empspacing="5"
       dotted="false"
       gridanglex="30"
       gridanglez="30"
       visible="true" />
  </sodipodi:namedview>
  <path
     id="path1-9-7-0-4"
     style="fill:#000000;stroke:none;stroke-width:0.720576;stroke-dasharray:none;stroke-opacity:1"
     d="M 8.0097656 5.3085938 C 6.1015398 5.3085938 4.5683594 6.8327523 4.5683594 8.7324219 C 4.5683594 10.632091 6.1015398 12.154297 8.0097656 12.154297 C 9.883763 12.154297 11.414062 10.632091 11.414062 8.7324219 C 11.414062 6.8327523 9.883763 5.3085938 8.0097656 5.3085938 z M 16.970703 6.4746094 C 15.364299 6.4746094 14.074219 7.7562659 14.074219 9.3554688 C 14.074219 10.954671 15.364299 12.236328 16.970703 12.236328 C 18.548296 12.236328 19.837891 10.954671 19.837891 9.3554688 C 19.837891 7.7562659 18.548296 6.4746094 16.970703 6.4746094 z M 15.140625 12.957031 C 14.58863 12.951256 13.985965 13.230437 13.451172 13.652344 C 14.324674 14.559058 14.983749 15.678581 14.974609 16.919922 L 14.974609 18 L 21.998047 18 L 21.998047 16.242188 C 22.008287 14.851891 20.276558 12.957031 18.742188 12.957031 L 15.148438 12.957031 L 15.140625 12.957031 z M 5.8359375 13.009766 C 4.1258203 12.990594 1.9934095 15.254538 2.0019531 16.912109 L 2.0019531 19 L 13.982422 19 L 13.982422 16.912109 C 13.994582 15.260597 11.935937 13.009766 10.113281 13.009766 L 5.84375 13.009766 L 5.8359375 13.009766 z " />
</svg>
