<svg version="1.1" viewBox="0 0 24 24" xmlns="http://www.w3.org/2000/svg">
 <path d="m12 2c-5.52 0-10 4.48-10 10 0 5.52 4.48 10 10 10 5.52 0 10-4.48 10-10 0-5.52-4.48-10-10-10zm0 1.11c4.92 0 8.89 3.97 8.89 8.89 0 4.92-3.97 8.89-8.89 8.89-4.92 0-8.89-3.97-8.89-8.89 0-4.92 3.97-8.89 8.89-8.89zm.0352 2.89c-.264.0128-.497.123-.697.328-.208.219-.312.474-.312.768 0 .277.105.524.312.742.214.213.463.32.75.32.309 0 .567-.112.775-.336.214-.229.32-.495.32-.799 0-.272-.105-.508-.312-.711-.202-.208-.463-.312-.783-.312-.0179 0-.0351-.000854-.0527 0zm.832 3.72-2.89.184v.539c.166.0111.348.042.547.0918.199.0443.352.0977.457.164.144.0996.255.226.332.375.083.144.123.303.123.48v5.06c0 .199-.0378.359-.115.486-.0719.122-.185.208-.34.258-.0996.0332-.219.0553-.357.0664-.133.0111-.261.0241-.389.0352v.547h3.96v-.547c-.144-.0111-.276-.0329-.393-.0605-.116-.0332-.234-.0732-.355-.123-.16-.0609-.282-.154-.359-.281-.0719-.127-.105-.289-.105-.482v-6.67l-.117-.117z" color="#000000" stroke-linecap="square" stroke-linejoin="round" stroke-width="1.11" style="-inkscape-stroke:none"/>
</svg>
