<svg version="1.1" viewBox="0 0 24 24" xmlns="http://www.w3.org/2000/svg">
 <path d="m19.1 1.25c-.105.00438-.212.0203-.318.0488l-14.1 3.79c-.848.227-1.27 1.14-1.05 1.95l.258.969 17.1-4.58-.26-.969c-.189-.707-.841-1.24-1.57-1.21zm2.34 4.07-13.7 3.68h12c.677 0 1.22.545 1.22 1.22v2.99l.955-.256c.857-.23 1.27-1.15 1.05-1.96l-1.52-5.68zm-19.3 4.68c-.677 0-1.22.545-1.22 1.22v9.55c0 .677.545 1.22 1.22 1.22h16.6c.677 0 1.22-.545 1.22-1.22v-9.55c0-.677-.545-1.22-1.22-1.22h-16.6zm14.2 2.05c.831-1e-6 1.51.673 1.51 1.5 1e-6.827-.681 1.5-1.51 1.5s-1.51-.675-1.51-1.5c-1e-6-.827.679-1.5 1.51-1.5zm-13.4 4.95h3v1h-3v-1zm4 0h3v1h-3v-1zm4 0h3v1h-3v-1zm-7 2h5v1h-5v-1z" />
</svg>
