<svg version="1.1" viewBox="0 0 24 24" xmlns="http://www.w3.org/2000/svg">
 <path d="m4.66 1.36-3.75 3.75 3.75 3.75 1.1-1.1-1.88-1.88h2.12v-1.55h-2.13l1.88-1.88-1.1-1.09zm1.34 2.97h4.62v1.55h-4.62v4.45h3.21l-1.88-1.88 1.1-1.1 3.75 3.75-3.75 3.75-1.1-1.09 1.88-1.88h-3.21v9.12h8.03c-.738-.852-1.19-1.96-1.19-3.17 0-2.68 2.18-4.86 4.86-4.86.453 0 .89.065 1.31.182v-4.74h-5.42v-5.42h-7.58v1.33zm0 7.55v-1.55h-3.54v1.55h3.54zm8.67-8.88v4.33h4.33l-4.33-4.33zm3.03 10.9a3.97 3.97 0 00-3.97 3.97 3.97 3.97 0 003.97 3.97 3.97 3.97 0 003.97-3.97 3.97 3.97 0 00-3.97-3.97zm.291.0117c.0235.0017.0469.0018.0703.00391-.0233-.00212-.0469-.00219-.0703-.00391zm1.81 2.36a.192.192 0 01.137.0566l.41.412a.192.192 0 010 .273l-3.14 3.15c-.0754.0754-.207.0754-.275 0l-1.61-1.61a.192.192 0 010-.273l.41-.41a.192.192 0 01.275 0l1.05 1.06 2.6-2.61a.192.192 0 01.139-.0566zm-5.97 2.48c.0078.0347.0167.0692.0254.104-.00864-.0341-.0176-.0691-.0254-.104zm.221.688c.0161.0376.0335.0743.0508.111-.0172-.0369-.0347-.0738-.0508-.111zm.084.18c.0217.0443.0451.0875.0684.131-.0233-.0435-.0466-.0864-.0684-.131zm.639.936c.0333.0363.0669.0724.102.107-.0348-.0352-.0681-.0709-.102-.107zm.143.146c.0345.0339.0698.067.105.0996-.0356-.0326-.0711-.0658-.105-.0996z" stroke-linecap="round" stroke-linejoin="round" stroke-width=".518"/>
</svg>
