<svg version="1.1" viewBox="0 0 24 24" xmlns="http://www.w3.org/2000/svg">
 <path d="m3 4v16h9.33c-.135-.317-.238-.649-.312-.992h-8.03v-13h16v6.89c.354.185.687.406.992.66v-9.57h-18zm5 3.01v2.02h2.02v-2.02h-2.02zm3.01 0v2.02h1.98v-2.02h-1.98zm2.98 0v2.02h2.02v-2.02h-2.02zm3.01.00781v2.01h2.02v-2.01h-2.02zm-12 3v1.98h2.02v-1.98h-2.02zm3.01 0v1.98h2.02v-1.98h-2.02zm3.01 0v1.98h1.98v-1.98h-1.98zm2.98 0v1.98h2.02v-1.98h-2.02zm3.01.00781v1.97h2.02v-1.97h-2.02zm.455 2.96c-2.68 0-4.86 2.18-4.86 4.86 0 2.68 2.18 4.85 4.86 4.85 2.68 0 4.86-2.18 4.86-4.85 0-2.68-2.18-4.86-4.86-4.86zm-12.5.00976v2.02h2.02v-2.02h-2.02zm3.01 0v2.02h2.02v-2.02h-2.02zm3.01 0v2.02h1.66c.0985-.166.206-.326.32-.48v-1.54h-1.98zm2.98 0v.51c.236-.189.488-.36.754-.51h-.754zm3.47.877c2.2 0 3.97 1.77 3.97 3.97 0 2.2-1.77 3.97-3.97 3.97-2.2 0-3.97-1.77-3.97-3.97 0-2.2 1.77-3.97 3.97-3.97zm0 .939c-.277 0-.5.226-.5.508v2.51c0 .282.223.51.5.51.00866 0 .0168-.00152.0254-.00195.00839 4e-4.0169.00195.0254.00195h1.94c.282 0 .51-.223.51-.5 0-.277-.227-.5-.51-.5h-1.49v-2.02c0-.282-.223-.508-.5-.508zm-12.5 1.19v2.02h2.02v-2.02h-2.02zm3.01 0v2.02h2.02v-2.02h-2.02zm3.01 0v2.02h.893c-.00196-.0605-.00586-.121-.00586-.182 0-.643.112-1.26.314-1.84h-1.2z" stroke-linejoin="round" stroke-width=".2"/>
</svg>
